<svg id="Componente_10_1" data-name="Componente 10 – 1" xmlns="http://www.w3.org/2000/svg" width="167" height="168" viewBox="0 0 167 168">
  <circle id="Elipse_1" data-name="Elipse 1" cx="83.5" cy="83.5" r="83.5" fill="#2d2d2d"/>
  <g id="Grupo_12" data-name="Grupo 12" transform="translate(-306.822 -4511.776)">
    <circle id="Elipse_2" data-name="Elipse 2" cx="63.5" cy="63.5" r="63.5" transform="translate(326.822 4552.776)" fill="#f3f3f3"/>
    <path id="github-svgrepo-com" d="M70.988,0A71,71,0,0,0,48.525,138.355c3.563.67,4.849-1.526,4.849-3.425,0-1.686-.04-6.145-.067-12.063-19.757,4.277-23.918-9.543-23.918-9.543-3.234-8.181-7.9-10.378-7.9-10.378-6.424-4.388.51-4.295.51-4.295,7.117.484,10.861,7.3,10.861,7.3,6.331,10.861,16.611,7.72,20.68,5.892.621-4.574,2.471-7.72,4.486-9.472-15.759-1.779-32.331-7.88-32.331-35.081a27.421,27.421,0,0,1,7.3-19.065c-.785-1.779-3.19-9.011.626-18.79,0,0,5.941-1.894,19.522,7.281a66.808,66.808,0,0,1,35.494,0c13.5-9.175,19.437-7.281,19.437-7.281,3.811,9.779,1.406,17.006.714,18.79a27.6,27.6,0,0,1,7.254,19.065c0,27.264-16.593,33.276-32.37,35.01,2.467,2.125,4.778,6.5,4.778,13.128,0,9.495-.089,17.144-.089,19.455,0,1.846,1.242,4.064,4.9,3.35A70.9,70.9,0,0,0,70.979,0Z" transform="translate(319.005 4537.879)" fill="#2d2d2d"/>
  </g>
</svg>
