<svg xmlns="http://www.w3.org/2000/svg" xmlns:xlink="http://www.w3.org/1999/xlink" width="167" height="167" viewBox="0 0 167 167">
  <defs>
    <clipPath id="clip-path">
      <circle id="Elipse_1" data-name="Elipse 1" cx="83.5" cy="83.5" r="83.5" transform="translate(1120 4292)" fill="#2d2d2d"/>
    </clipPath>
  </defs>
  <g id="Grupo_de_máscara_1" data-name="Grupo de máscara 1" transform="translate(-1120 -4292)" clip-path="url(#clip-path)">
    <path id="instagram-svgrepo-com" d="M58.127,46.669A12.042,12.042,0,1,0,70.061,58.708,12,12,0,0,0,58.127,46.669Zm0,0A12.042,12.042,0,1,0,70.061,58.708,12,12,0,0,0,58.127,46.669ZM78.009,27.036H38.248A11.576,11.576,0,0,0,26.737,38.65V78.768a11.576,11.576,0,0,0,11.51,11.614H78.009a11.576,11.576,0,0,0,11.51-11.614V38.65A11.576,11.576,0,0,0,78.009,27.036ZM58.127,79.562A20.854,20.854,0,1,1,78.8,58.708,20.785,20.785,0,0,1,58.127,79.562ZM79.46,42.168a4.934,4.934,0,1,1,4.89-4.934A4.918,4.918,0,0,1,79.46,42.168Zm-21.333,4.5A12.042,12.042,0,1,0,70.061,58.708,12,12,0,0,0,58.127,46.669ZM78.009,27.036H38.248A11.576,11.576,0,0,0,26.737,38.65V78.768a11.576,11.576,0,0,0,11.51,11.614H78.009a11.576,11.576,0,0,0,11.51-11.614V38.65A11.576,11.576,0,0,0,78.009,27.036ZM58.127,79.562A20.854,20.854,0,1,1,78.8,58.708,20.785,20.785,0,0,1,58.127,79.562ZM79.46,42.168a4.934,4.934,0,1,1,4.89-4.934A4.918,4.918,0,0,1,79.46,42.168Zm-21.333,4.5A12.042,12.042,0,1,0,70.061,58.708,12,12,0,0,0,58.127,46.669ZM-37-29.675v178.65l195.8-5V-41.108ZM98.251,78.768A20.356,20.356,0,0,1,78.009,99.192H38.248A20.356,20.356,0,0,1,18,78.768V38.65A20.356,20.356,0,0,1,38.248,18.226H78.009A20.356,20.356,0,0,1,98.251,38.65V78.768ZM78.009,27.036H38.248A11.576,11.576,0,0,0,26.737,38.65V78.768a11.576,11.576,0,0,0,11.51,11.614H78.009a11.576,11.576,0,0,0,11.51-11.614V38.65A11.576,11.576,0,0,0,78.009,27.036ZM58.127,79.562A20.854,20.854,0,1,1,78.8,58.708,20.785,20.785,0,0,1,58.127,79.562ZM79.46,42.168a4.934,4.934,0,1,1,4.89-4.934A4.918,4.918,0,0,1,79.46,42.168Zm-21.333,4.5A12.042,12.042,0,1,0,70.061,58.708,12,12,0,0,0,58.127,46.669Zm0,0A12.042,12.042,0,1,0,70.061,58.708,12,12,0,0,0,58.127,46.669Zm0,0A12.042,12.042,0,1,0,70.061,58.708,12,12,0,0,0,58.127,46.669ZM78.009,27.036H38.248A11.576,11.576,0,0,0,26.737,38.65V78.768a11.576,11.576,0,0,0,11.51,11.614H78.009a11.576,11.576,0,0,0,11.51-11.614V38.65A11.576,11.576,0,0,0,78.009,27.036ZM58.127,79.562A20.854,20.854,0,1,1,78.8,58.708,20.785,20.785,0,0,1,58.127,79.562ZM79.46,42.168a4.934,4.934,0,1,1,4.89-4.934A4.918,4.918,0,0,1,79.46,42.168Zm-21.333,4.5A12.042,12.042,0,1,0,70.061,58.708,12,12,0,0,0,58.127,46.669Zm0,0A12.042,12.042,0,1,0,70.061,58.708,12,12,0,0,0,58.127,46.669Zm0,0A12.042,12.042,0,1,0,70.061,58.708,12,12,0,0,0,58.127,46.669ZM78.009,27.036H38.248A11.576,11.576,0,0,0,26.737,38.65V78.768a11.576,11.576,0,0,0,11.51,11.614H78.009a11.576,11.576,0,0,0,11.51-11.614V38.65A11.576,11.576,0,0,0,78.009,27.036ZM58.127,79.562A20.854,20.854,0,1,1,78.8,58.708,20.785,20.785,0,0,1,58.127,79.562ZM79.46,42.168a4.934,4.934,0,1,1,4.89-4.934A4.918,4.918,0,0,1,79.46,42.168Zm-21.333,4.5A12.042,12.042,0,1,0,70.061,58.708,12,12,0,0,0,58.127,46.669Z" transform="translate(1145.381 4317.854)" fill="#2d2d2d"/>
  </g>
</svg>
