<svg xmlns="http://www.w3.org/2000/svg" width="167" height="167" viewBox="0 0 167 167">
  <g id="Grupo_13" data-name="Grupo 13" transform="translate(-556 -4292)">
    <circle id="Elipse_1" data-name="Elipse 1" cx="83.5" cy="83.5" r="83.5" transform="translate(556 4292)" fill="#2d2d2d"/>
    <g id="XMLID_801_" transform="translate(605.388 4341.609)">
      <path id="XMLID_802_" d="M19.718,99.73H6.027a1.1,1.1,0,0,0-1.1,1.1v43.983a1.1,1.1,0,0,0,1.1,1.1H19.718a1.1,1.1,0,0,0,1.1-1.1V100.83A1.1,1.1,0,0,0,19.718,99.73Z" transform="translate(-3.843 -77.524)" fill="#f3f3f3"/>
      <path id="XMLID_803_" d="M9.034.341a9.026,9.026,0,1,0,9.027,9.024A9.04,9.04,0,0,0,9.034.341Z" transform="translate(0 0)" fill="#f3f3f3"/>
      <path id="XMLID_804_" d="M133.516,94.761a16.08,16.08,0,0,0-12.029,5.05V96.954a1.1,1.1,0,0,0-1.1-1.1H107.276a1.1,1.1,0,0,0-1.1,1.1v43.983a1.1,1.1,0,0,0,1.1,1.1h13.661a1.1,1.1,0,0,0,1.1-1.1V119.176c0-7.333,1.992-10.19,7.1-10.19,5.567,0,6.01,4.58,6.01,10.567v21.384a1.1,1.1,0,0,0,1.1,1.1h13.666a1.1,1.1,0,0,0,1.1-1.1V116.812C151.016,105.908,148.937,94.761,133.516,94.761Z" transform="translate(-82.818 -73.648)" fill="#f3f3f3"/>
    </g>
  </g>
</svg>
