<svg xmlns="http://www.w3.org/2000/svg" xmlns:xlink="http://www.w3.org/1999/xlink" width="614.013" height="306.629" viewBox="0 0 614.013 306.629">
  <defs>
    <filter id="Caminho_3" x="0" y="0" width="614.013" height="306.629" filterUnits="userSpaceOnUse">
      <feOffset dx="8" dy="8" input="SourceAlpha"/>
      <feGaussianBlur result="blur"/>
      <feFlood flood-color="#2d2d2d"/>
      <feComposite operator="in" in2="blur"/>
      <feComposite in="SourceGraphic"/>
    </filter>
  </defs>
  <g transform="matrix(1, 0, 0, 1, 0, 0)" filter="url(#Caminho_3)">
    <g id="Caminho_3-2" data-name="Caminho 3" transform="translate(606.89 264.77) rotate(180)" fill="#f8e749">
      <path d="M 605.3864135742188 263.2685241699219 L 2.373512744903564 263.2685241699219 L 2.373512744903564 1.382824420928955 L 252.0461273193359 1.382824420928955 L 252.5478210449219 1.382824420928955 L 252.9485931396484 1.080978274345398 L 296.81201171875 -31.95661354064941 L 337.5013732910156 1.047747492790222 L 337.9144287109375 1.382824420928955 L 338.4462890625 1.382824420928955 L 605.3864135742188 1.382824420928955 L 605.3864135742188 263.2685241699219 Z" stroke="none"/>
      <path d="M 296.7777709960938 -30.05294799804688 L 253.8510437011719 2.279129028320313 L 253.0494995117188 2.882827758789063 L 252.046142578125 2.882827758789063 L 3.87353515625 2.882827758789063 L 3.87353515625 261.7685241699219 L 603.8864135742188 261.7685241699219 L 603.8864135742188 2.882827758789063 L 338.4462890625 2.882827758789063 L 337.3825988769531 2.882827758789063 L 336.5564270019531 2.212753295898438 L 296.7777709960938 -30.05294799804688 M 296.84619140625 -33.86026000976563 L 338.4462890625 -0.1171722412109375 L 606.8864135742188 -0.1171722412109375 L 606.8864135742188 264.7685241699219 L 0.87353515625 264.7685241699219 L 0.87353515625 -0.1171722412109375 L 252.046142578125 -0.1171722412109375 L 296.84619140625 -33.86026000976563 Z" stroke="none" fill="#2d2d2d"/>
    </g>
  </g>
</svg>
