<svg xmlns="http://www.w3.org/2000/svg" width="167" height="167" viewBox="0 0 167 167">
  <g id="Grupo_14" data-name="Grupo 14" transform="translate(-838 -4292)">
    <circle id="Elipse_1" data-name="Elipse 1" cx="83.5" cy="83.5" r="83.5" transform="translate(838 4292)" fill="#2d2d2d"/>
    <rect id="Retângulo_14" data-name="Retângulo 14" width="102" height="101" transform="translate(873.5 4324)" fill="#f3f3f3"/>
    <g id="Grupo_15" data-name="Grupo 15" transform="translate(154 -294)">
      <g id="whatsapp-svgrepo-com" transform="translate(710 4611)">
        <path id="Caminho_6" data-name="Caminho 6" d="M129.518,95.321a33.62,33.62,0,0,0-28.306,51.75l.834,1.3-3.269,11.612,12.014-3.093,1.239.757a33.615,33.615,0,1,0,17.488-62.325Zm20.612,43.944-.419,1.959a8.48,8.48,0,0,1-3.69,5.383,11.2,11.2,0,0,1-9.481,1.173c-12.292-3.476-19.244-11.614-22.974-16.7s-5.171-10.173-4.239-14.327a11.968,11.968,0,0,1,3.935-6.03,3.177,3.177,0,0,1,2.258-.772l2.627.143a1.361,1.361,0,0,1,1.177.824l3.826,8.953a1.361,1.361,0,0,1-.222,1.425l-3.331,3.853a1.007,1.007,0,0,0-.127,1.124,27.291,27.291,0,0,0,14.768,12.637,1,1,0,0,0,1.121-.334l3.485-4.518a1.361,1.361,0,0,1,1.647-.4l8.877,4.092A1.361,1.361,0,0,1,150.13,139.265Z" transform="translate(-71.513 -71.078)" fill="#2d2d2d"/>
        <path id="Caminho_7" data-name="Caminho 7" d="M0,0V115.9H115.9V0ZM58,98.336a40.427,40.427,0,0,1-19.79-5.161L17.42,98.528,23.1,78.364A40.484,40.484,0,1,1,58,98.336Z" fill="#2d2d2d"/>
      </g>
    </g>
  </g>
</svg>
